<?xml version="1.0" standalone="no"?>
<!DOCTYPE svg PUBLIC "-//W3C//DTD SVG 20010904//EN"
 "http://www.w3.org/TR/2001/REC-SVG-20010904/DTD/svg10.dtd">
<svg version="1.0" xmlns="http://www.w3.org/2000/svg"
 width="91.000000pt" height="96.000000pt" viewBox="0 0 91.000000 96.000000"
 preserveAspectRatio="xMidYMid meet">

<g transform="translate(0.000000,96.000000) scale(0.100000,-0.100000)"
fill="blue" stroke="none">
<path d="M435 910 c-10 -16 8 -32 79 -70 l66 -34 2 -280 c3 -258 4 -281 21
-284 16 -3 17 15 17 262 0 146 3 266 8 266 4 0 21 -9 37 -20 17 -11 54 -32 83
-47 l52 -26 -2 -204 -3 -204 -50 -28 c-27 -16 -104 -60 -170 -98 l-119 -71
-56 31 c-30 17 -93 54 -140 83 -47 28 -100 59 -117 68 l-33 17 0 104 0 105
100 0 100 0 0 -120 0 -120 25 0 25 0 -2 293 c-3 284 -4 292 -23 292 -19 0 -20
-8 -23 -147 l-3 -148 -99 0 -99 0 -3 88 c-2 69 -6 87 -18 87 -13 0 -15 -33
-17 -230 l-3 -230 103 -59 c56 -32 139 -81 184 -107 45 -27 89 -49 98 -49 9 0
53 22 98 49 45 27 128 75 184 107 l102 59 1 231 c0 212 -1 232 -17 237 -10 3
-94 51 -188 106 -93 56 -175 101 -182 101 -6 0 -15 -5 -18 -10z"/>
</g>
</svg>
